<svg xmlns="http://www.w3.org/2000/svg" xmlns:xlink="http://www.w3.org/1999/xlink" width="574" zoomAndPan="magnify" viewBox="0 0 430.5 204.749996" height="273" preserveAspectRatio="xMidYMid meet" version="1.0"><defs><g/><clipPath id="96e0a2b8fc"><path d="M 348.855469 123.316406 L 354.652344 123.316406 L 354.652344 129.117188 L 348.855469 129.117188 Z M 348.855469 123.316406 " clip-rule="nonzero"/></clipPath><clipPath id="1398145edf"><path d="M 75.644531 75.472656 L 81.644531 75.472656 L 81.644531 81.472656 L 75.644531 81.472656 Z M 75.644531 75.472656 " clip-rule="nonzero"/></clipPath><clipPath id="5e6cddd6eb"><path d="M 249.929688 80.34375 L 297.175781 80.34375 L 297.175781 127.589844 L 249.929688 127.589844 Z M 249.929688 80.34375 " clip-rule="nonzero"/></clipPath></defs><g fill="#ffffff" fill-opacity="1"><g transform="translate(82.218072, 116.253106)"><g><path d="M 21.9375 -15.53125 C 27.019531 -14.84375 29.5625 -12.304688 29.5625 -7.921875 C 29.5625 -5.347656 28.644531 -3.382812 26.8125 -2.03125 C 24.976562 -0.675781 22.242188 0 18.609375 0 L 5.75 0 L 5.75 -30.296875 L 17.75 -30.296875 C 20.914062 -30.296875 23.398438 -29.640625 25.203125 -28.328125 C 27.015625 -27.015625 27.921875 -25.117188 27.921875 -22.640625 C 27.921875 -20.734375 27.390625 -19.179688 26.328125 -17.984375 C 25.273438 -16.785156 23.8125 -15.96875 21.9375 -15.53125 Z M 6.625 -29.46875 L 6.625 -15.796875 L 17.921875 -15.796875 C 20.835938 -15.796875 23.085938 -16.378906 24.671875 -17.546875 C 26.253906 -18.710938 27.046875 -20.410156 27.046875 -22.640625 C 27.046875 -24.859375 26.253906 -26.550781 24.671875 -27.71875 C 23.085938 -28.882812 20.835938 -29.46875 17.921875 -29.46875 Z M 18.78125 -0.828125 C 25.394531 -0.828125 28.703125 -3.191406 28.703125 -7.921875 C 28.703125 -10.316406 27.867188 -12.085938 26.203125 -13.234375 C 24.546875 -14.390625 22.070312 -14.96875 18.78125 -14.96875 L 6.625 -14.96875 L 6.625 -0.828125 Z M 18.78125 -0.828125 "/></g></g></g><g fill="#ffffff" fill-opacity="1"><g transform="translate(114.58754, 116.253106)"><g><path d="M 13.640625 -10.296875 L 13.640625 0 L 12.765625 0 L 12.765625 -10.296875 L 0.4375 -30.296875 L 1.421875 -30.296875 L 13.203125 -11.203125 L 24.96875 -30.296875 L 25.96875 -30.296875 Z M 13.640625 -10.296875 "/></g></g></g><g fill="#ffffff" fill-opacity="1"><g transform="translate(140.985093, 116.253106)"><g><path d="M 11.421875 -29.46875 L 0.171875 -29.46875 L 0.171875 -30.296875 L 23.546875 -30.296875 L 23.546875 -29.46875 L 12.296875 -29.46875 L 12.296875 0 L 11.421875 0 Z M 11.421875 -29.46875 "/></g></g></g><g fill="#ffffff" fill-opacity="1"><g transform="translate(164.699625, 116.253106)"><g><path d="M 25.921875 -0.828125 L 25.921875 0 L 5.75 0 L 5.75 -30.296875 L 25.28125 -30.296875 L 25.28125 -29.46875 L 6.625 -29.46875 L 6.625 -15.796875 L 23.328125 -15.796875 L 23.328125 -14.96875 L 6.625 -14.96875 L 6.625 -0.828125 Z M 25.921875 -0.828125 "/></g></g></g><g fill="#ffffff" fill-opacity="1"><g transform="translate(301.398598, 116.399215)"><g><path d="M 5.75 -30.296875 L 6.625 -30.296875 L 6.625 0 L 5.75 0 Z M 5.75 -30.296875 "/></g></g></g><g fill="#ffffff" fill-opacity="1"><g transform="translate(313.77516, 116.399215)"><g><path d="M 27.265625 0 L 19.5625 -10.6875 C 18.550781 -10.488281 17.367188 -10.390625 16.015625 -10.390625 L 6.625 -10.390625 L 6.625 0 L 5.75 0 L 5.75 -30.296875 L 16.015625 -30.296875 C 19.734375 -30.296875 22.644531 -29.421875 24.75 -27.671875 C 26.863281 -25.929688 27.921875 -23.488281 27.921875 -20.34375 C 27.921875 -17.914062 27.269531 -15.882812 25.96875 -14.25 C 24.664062 -12.625 22.832031 -11.507812 20.46875 -10.90625 L 28.34375 0 Z M 16.09375 -11.203125 C 19.613281 -11.203125 22.316406 -11.992188 24.203125 -13.578125 C 26.097656 -15.171875 27.046875 -17.425781 27.046875 -20.34375 C 27.046875 -23.257812 26.097656 -25.507812 24.203125 -27.09375 C 22.316406 -28.675781 19.613281 -29.46875 16.09375 -29.46875 L 6.625 -29.46875 L 6.625 -11.203125 Z M 16.09375 -11.203125 "/></g></g></g><g clip-path="url(#96e0a2b8fc)"><path fill="#ff9f1c" d="M 353.539062 123.316406 L 354.851562 123.316406 L 354.851562 129.316406 L 348.855469 129.316406 L 348.855469 128.003906 L 353.539062 128.003906 Z M 353.539062 123.316406 " fill-opacity="1" fill-rule="nonzero"/></g><g clip-path="url(#1398145edf)"><path fill="#ff9f1c" d="M 76.957031 81.472656 L 75.644531 81.472656 L 75.644531 75.472656 L 81.644531 75.472656 L 81.644531 76.785156 L 76.957031 76.785156 Z M 76.957031 81.472656 " fill-opacity="1" fill-rule="nonzero"/></g><g fill="#ffffff" fill-opacity="1"><g transform="translate(212.121188, 116.642731)"><g><path d="M 29.5625 -30.296875 L 29.5625 0 L 28.828125 0 L 6.625 -28.703125 L 6.625 0 L 5.75 0 L 5.75 -30.296875 L 6.5 -30.296875 L 28.703125 -1.59375 L 28.703125 -30.296875 Z M 29.5625 -30.296875 "/></g></g></g><g clip-path="url(#5e6cddd6eb)"><path fill="#ff9f1c" d="M 268.523438 109.136719 L 261.316406 116.34375 L 261.316406 95.132812 L 288.457031 122.273438 C 293.746094 117.914062 297.117188 111.347656 297.117188 103.964844 C 297.175781 90.949219 286.597656 80.371094 273.523438 80.371094 C 269.628906 80.371094 265.96875 81.300781 262.714844 82.988281 L 278.519531 98.792969 L 285.667969 91.644531 L 285.667969 112.859375 L 258.585938 85.71875 C 253.296875 90.019531 249.929688 96.644531 249.929688 103.964844 C 249.929688 116.984375 260.503906 127.5625 273.523438 127.5625 C 277.414062 127.5625 281.078125 126.632812 284.332031 124.945312 Z M 268.523438 109.136719 " fill-opacity="1" fill-rule="nonzero"/></g></svg>