<?xml version="1.0" standalone="no"?>
<!DOCTYPE svg PUBLIC "-//W3C//DTD SVG 20010904//EN"
 "http://www.w3.org/TR/2001/REC-SVG-20010904/DTD/svg10.dtd">
<svg version="1.0" xmlns="http://www.w3.org/2000/svg"
 width="500.000000pt" height="500.000000pt" viewBox="0 0 500.000000 500.000000"
 preserveAspectRatio="xMidYMid meet">
<metadata>
Created by potrace 1.14, written by Peter Selinger 2001-2017
</metadata>
<g transform="translate(0.000000,500.000000) scale(0.100000,-0.100000)"
fill="#000000" stroke="none">
<path d="M2487 4595 c-1 -2 -58 -5 -127 -8 -259 -12 -531 -84 -788 -208 l-34
-16 703 -702 703 -702 318 318 318 318 0 -945 0 -945 -1205 1208 -1204 1209
-48 -44 c-271 -245 -454 -504 -577 -816 -33 -85 -78 -228 -92 -291 -34 -163
-45 -271 -47 -431 -2 -240 3 -283 58 -563 7 -35 83 -253 109 -312 63 -144 207
-387 273 -460 10 -11 39 -46 66 -77 309 -368 803 -641 1272 -704 22 -3 69 -9
105 -14 68 -9 434 -6 460 4 8 3 33 8 55 10 35 4 67 10 170 30 77 15 259 75
343 114 31 14 60 26 63 26 3 1 22 10 42 21 l37 19 -698 698 c-383 384 -701
698 -707 698 -5 0 -152 -142 -325 -315 l-316 -316 1 936 c0 514 2 935 5 935 3
0 545 -540 1205 -1199 l1199 -1199 26 18 c14 10 69 62 124 117 397 397 619
924 620 1473 0 98 -11 276 -19 314 -2 11 -6 35 -9 51 -2 17 -10 55 -16 85 -6
30 -14 66 -16 80 -15 72 -91 285 -141 390 -168 358 -463 683 -812 894 -219
133 -499 236 -738 272 -21 3 -49 7 -63 10 -33 6 -288 22 -293 19z"/>
</g>
</svg>
